<?xml version="1.0" encoding="UTF-8" standalone="no"?>
<svg
   xmlns:svg="http://www.w3.org/2000/svg"
   xmlns="http://www.w3.org/2000/svg"
   viewBox="0 0 937.5 1250"
   fill="#000000"
   opacity="0.6"
   height="1250"
   width="937.5"
   version="1.1">
  <path
     d="M 0,625 0,0 468.75,0 937.5,0 l 0,625 0,625 -468.75,0 L 0,1250 0,625 Z m 488.4375,424.983 c 37.44763,-2.4873 73.05007,-11.9506 106.00129,-28.1758 14.49738,-7.1384 19.26832,-9.8873 33.06121,-19.0486 59.29012,-39.38116 101.74525,-99.79485 118.41969,-168.51116 4.45775,-18.37075 6.70456,-33.61288 7.81218,-52.99744 0.83469,-14.60756 0.84507,-312.15515 0.0113,-326.51388 -1.17225,-20.19003 -3.52012,-35.89623 -8.17725,-54.70246 C 725.55356,319.21961 668.77919,249.57673 593.4375,213.42352 558.78687,196.79619 523.83923,187.84637 485,185.65354 c -72.21903,-4.07745 -132.2179,11.5302 -187.5,48.77483 -63.2294,42.59887 -107.8096,111.66596 -120.2863,186.35684 -3.9615,23.71524 -3.67516,9.80688 -3.9276,190.77729 -0.23397,167.73175 -0.17009,173.59419 2.08399,191.25 10.37152,81.23825 55.81108,154.33169 124.46704,200.2159 40.61744,27.1455 88.46377,43.4504 137.66287,46.9124 10.49244,0.7383 40.08819,0.7628 50.9375,0.043 z" />
</svg>
